<?xml version="1.0" encoding="UTF-8"?>
<svg id="b" data-name="Calque 2" xmlns="http://www.w3.org/2000/svg" viewBox="0 0 460.8 259.2">
  <defs>
    <style>
      .color-change {
        fill: #000000;
      }
    </style>
  </defs>
  <path class="color-change" d="M354.9,103.79s4.02-1.23,4.42-1.37c.53-.13,8.25-1.8,11.35-3.1,3.2-1.37,5.68-2.08,6-2.3s2.48-1.45,2.65-1.55c.33-.15,1.6-1.35,3.2-.95.6,2.88,1.62,14.26,1.52,15.32-.67.77-.85.88-1.21,1.03-.58.26-3.71,1.9-4.86,2.33-5.83,1.86-8.58,5.21-30.43,7.71-5.05.3-14.77,1.25-28.87-1.72-7.73-1.73-12.23-2.82-18.73-5.88-5.87-2.73-10.07-4.87-12.17-6.3-1.63-1.03-4.13-2.68-4.2-3.05,3.93-.93,14.23-6.68,17.7-6.53,1.97.83,10.93,6.33,13.37,7.3s12.85,4.62,21.8,4.52c9.65-.55,12.49-1.36,13.59-1.99,1.33-.87,3.43-2.19,4.88-3.46Z"/>
  <path class="color-change" d="M144.26,159.78s.32-4,.83-5.25c.53-1.33,2.29-8.57,4.19-11.92,1.53-2.98,3.57-6.5,5.37-7.2,1.63-.95,9.83-4.05,15.07-5.18,4.9-1.73,26.03-9,27.33-9.55,10-3.3,21.4-7.8,40.15-15.95,10.7-4.6,15.65-7,17-7.05,1.75.05,3.85-2.05,9.5,1.25,5.9,3.1,10.95,4.9,11.95,5,1.5.15,7.07.41,7.9.03s.79.39,4.25-1.57c3.02-1.33,6.69-2.77,7.69-3.34s5.57-1.5,5.76-1.62-.49-1.35-2.54-2.37c-1.92-1.47-7.65-5.36-9.75-7.83-2.65-2.2-11.26-9.81-13.16-11.16-2.1-1.5-5.35-5.9-13.4-3-2.25.8-2.5.97-2.5.97l2.57,3.7s4.37.07,4.73,3.27c.07,3.43-1.83,8.97-8.63,5.9-2.53-1.9-1.4-5-1.4-5l-4.9-4.73-11.4,6.63-.4.3s2.78,2.71,3.15,3.28c.66.44,1.73,2.92,1.42,3.54-.5.99-1.3,1.46-2.4,1.75-1.23.33-3.74-.2-4.67-.6-1.47-.5-4.2-2.26-5.3-3.43-1.75.72-6.87,3.63-6.87,3.63,0,0,4.03,4.27.9,7.77-1.73,1.2-5,3.2-9.37-3.27-2.07,1.1-8.97,3.33-8.97,3.33,0,0,3.37,4.77,1.07,6.93-2.17,1.93-3.82,2.83-8.1.93-1.34-1.02-2.8-3.65-3.07-4.45-2.2,1.33-9.27,3.18-9.27,3.18,0,0,2.73,3.83,1.13,6.87-1.07,1.43-2.2,2.37-4.65,1.05-2.4-1.87-4.4-4.52-4.7-5.05-1.73.57-11.24,2.93-11.24,2.93,0,0,4.15,2.9,1.1,8.07-.29.39-1.83.86-3.73.41-.82-.2-2.06-.69-2.9-1.47-1.77-2.1-3.02-4.83-3.02-4.83l-8.68,2.75s2.5,6.67-.1,8.73c-1.53.93-3.8,2.17-5.4.2-1.4-1.73-3.37-5.87-3.37-5.87,0,0-4.43-.43-10.12,4.13-5.1,2.65-15.4,28-13,31.3-.05.47,6.42,1.37,6.42,1.37,0,0,13.5,2.53,17.48,2.48Z"/>
</svg>
