<?xml version="1.0" encoding="UTF-8"?>
<svg id="b" data-name="Calque 2" xmlns="http://www.w3.org/2000/svg" viewBox="0 0 156.78 157.66">
  <g id="c" data-name="Calque 2">
    <path class="color-change" fill="currentColor" d="M44.43,34.1l-23.13-.57-11.7-.27s-4.1-.17-4.43,6.57c-.43,5.07-1,15.1-1,15.1l-4.17-5.26,3-23.22,1.13-16.27L8.63.96s.93-1.3,1.07-.87c.17.47-2.47,9.73-2.27,11.88.1,3.3.36,8.25.3,9.35,0,0-.38,1.88,2.77,1.8s19.07-.27,21.62.12c3.05-.05,7.03,0,7.03,0l5.28,10.85Z"/>
    <path class="color-change" fill="currentColor" d="M32.47,96.06s10.67-5.33,19.53-6c2.81-.43,10.13-1.4,11.27-.27,1.4,1.2,3.73,3.4,2.87,6.27-.8,3.07-3.7,11.92-2.55,13.77,1.6,1.9,3.6,4.5,9.2,4.2s8.85-1.25,13.55,3.45c6.1,4.05,15.72,11.07,15.72,11.07,0,0,13.23,8.33,22.03,9.28,8.25.5,16.2.75,20.05-.85,3.1-2,4.1-1.35,3.2-8.75-1.25-2.9-9.92-16.48-10.12-16.82,1.53-1.07,1.8.1,2.67,1.63,1.13,1.67,8.33,13.5,8.33,13.5,0,0,9.13,15.3,8.53,21.85-.3,4.4-.25,5.55-9.1,7.8-6.4.92-10.6,2-20.35,1.15-9.35-.95-16.3-1.95-24.5-4.6-7.05-1.75-22.4-8.75-27.65-11.85-5.2-3.1-14.35-9.85-15.75-11.4-2.35-1.55-12.25-10.9-15.95-15.8-3.25-4.95-8.35-12.3-8.35-12.3,0,0-3.18-4.38-2.63-5.33Z"/>
  </g>
</svg>
