<?xml version="1.0" encoding="UTF-8"?>
<svg id="b" data-name="Calque 2" xmlns="http://www.w3.org/2000/svg" viewBox="0 0 460.8 259.2">
  <defs>
    <style>
      .color-change {
        fill: #000000;
      }
    </style>
  </defs>
  <path class="color-change" d="M266.96,175.68l12.55-16.65,10.35-13.2s4.85-6.2,12.75-1.1c5.1,2.05,12,7.15,13.95,9.75,4.05,1.6,15.15,4.3,21.45-2.65,2.6-3.05,2.6-5.95,14.9-5.25,13.25-.3,28.65-1,31.95-3.05,3.4-.97,6.77-3.12,7.25-4.35s2.81-3.19-1.97-4.32c3.18-.86,10.14,4.49,10.82,4.9.56.44,5.56,3.92,7.53,6.69,2.47,2.37,4.47,4.88,4.47,4.88,0,0,3.09,3-2.94,7.13-4.8,3.53-15.1,6.37-17.57,7.13-3.1,1.2-15.27,4.8-19.67,5.43-4.8.77-22.05,4.95-44.45,6.65-6.15.2-20.8,1.1-25.3.75-5.3-.35-16.35-.63-21.78-1.33-6.6-.73-12.83-.92-14.3-1.43Z"/>
  <path class="color-change" d="M128.63,165.87l-3.47-6.8-5.13-10.1-1.83-4.03s-1.7-6.93-8.5-10.23c-4.5-2.98-20.75-8.28-20.75-8.28l-17.38-5.73-10.8-3.63s-4.01-1.76-8.14-6.56c-1.33-2.57-2.06-5-2.43-6.52-.55-1.46-1.47-5.1-1.63-8.33-1-.02-1.77.57-2.32,1.57-.22.39-.65,2.2-.57,7.32,0,0-.57,6.77-.62,11.32-.25,4.9-1.05,14.2-1.05,14.2l-.85,9.65s-.8,14.05-1.1,16.35c-.45,2,2.35,2.15,7.55,3.55,4.35.7,12.1,2.2,16.8,2.45s4.85.3,5.95.3c0,0,8.6.65,11.8.5,2.8.1,13.55.98,13.55.98l9.57.57,9.33.53,8.63.7,3.4.24Z"/>
</svg>
